# xmcd
#
# Track frame offsets:
#	150
#	19160
#	39273
#	58845
#	77223
#	97565
#	120975
#	143758
#	161845
#	179770
#
# Disc length: 2676 seconds
#
# Revision: 1
# Processed by: cddbd v1.4PL0 Copyright (c) Steve Scherf et al.
# Submitted via: EasyCDDAExtractor 5.0.6
#
DISCID=7a0a720a
DTITLE=Luis Ogando
DYEAR=1993
DGENRE=Salsa
TTITLE0=Joaquin y Miguel
TTITLE1=Nacio El Amor
TTITLE2=Linda Guajira
TTITLE3=Mi Vieja
TTITLE4=Nostalgia
TTITLE5=Concierto Al Amor
TTITLE6=Para Toda La Vida
TTITLE7=Mercedita
TTITLE8=Cabecita Loca
TTITLE9=Tierra Tropical
EXTD=
EXTT0=
EXTT1=
EXTT2=
EXTT3=
EXTT4=
EXTT5=
EXTT6=
EXTT7=
EXTT8=
EXTT9=
PLAYORDER=
